<?xml version="1.0" encoding="utf-8"?>
<!-- Generator: Adobe Illustrator 24.1.2, SVG Export Plug-In . SVG Version: 6.00 Build 0)  -->
<svg version="1.1" xmlns="http://www.w3.org/2000/svg" xmlns:xlink="http://www.w3.org/1999/xlink" x="0px" y="0px"
	 viewBox="0 0 595.28 841.89" style="enable-background:new 0 0 595.28 841.89;" xml:space="preserve">
<style type="text/css">
	.st0{fill:#FAB523;}
	.st1{fill:none;stroke:#FFFFFF;stroke-miterlimit:10;}
	.st2{fill:#41579A;}
	.st3{fill:none;}
	.st4{font-family:'Roboto-Regular';}
	.st5{font-size:10px;}
	.st6{fill:#FFFFFF;}
	.st7{font-family:'Roboto-Black';}
	.st8{fill:none;stroke:#E52320;stroke-width:5;stroke-miterlimit:10;}
	.st9{fill:none;stroke:#E52320;stroke-width:5;stroke-miterlimit:10;stroke-dasharray:5.9431,2.9715;}
	.st10{fill:none;stroke:#E52320;stroke-width:5;stroke-miterlimit:10;stroke-dasharray:6.1147,3.0573;}
	.st11{fill:none;stroke:#0D9A39;stroke-width:5;stroke-miterlimit:10;}
	.st12{fill:none;stroke:#0D9A39;stroke-width:5;stroke-miterlimit:10;stroke-dasharray:6.2634,2.0878;}
	.st13{fill:none;stroke:#0D9A39;stroke-width:5;stroke-miterlimit:10;stroke-dasharray:6.3071,2.1024;}
	.st14{fill:none;stroke:#8164A2;stroke-width:5;stroke-miterlimit:10;}
	.st15{fill:none;stroke:#8164A2;stroke-width:5;stroke-miterlimit:10;stroke-dasharray:6.0608,3.0304;}
	.st16{fill:none;stroke:#8164A2;stroke-width:5;stroke-miterlimit:10;stroke-dasharray:5.8776,2.9388;}
	.st17{font-family:'Roboto-Light';}
	.st18{fill:#8164A2;}
	.st19{fill:#E52320;}
	.st20{fill:#0D9A39;}
	.st21{fill:none;stroke:#000000;stroke-width:0.5;stroke-miterlimit:10;stroke-dasharray:1,2;}
	.st22{fill:none;stroke:#000000;stroke-width:2;stroke-miterlimit:10;}
	.st23{font-family:'Roboto-Bold';}
	.st24{font-size:14px;}
	.st25{display:none;}
	.st26{display:inline;fill:none;}
	.st27{display:inline;}
	.st28{display:inline;opacity:0.43;}
	.st29{fill:#686867;}
	.st30{fill:#C4C4C4;}
	.st31{fill:#E9E9E9;}
	.st32{fill:none;stroke:#FFFFFF;stroke-width:1.0027;stroke-miterlimit:10;}
	.st33{font-size:10.0586px;}
	.st34{fill:none;stroke:#E52320;stroke-width:5;stroke-miterlimit:10;stroke-dasharray:6.1798,3.0899;}
	.st35{fill:none;stroke:#E52320;stroke-width:5;stroke-miterlimit:10;stroke-dasharray:6.3071,3.1536;}
	.st36{fill:none;stroke:#8164A2;stroke-width:5;stroke-miterlimit:10;stroke-dasharray:5.8545,2.9273;}
	.st37{fill:none;stroke:#8164A2;stroke-width:5;stroke-miterlimit:10;stroke-dasharray:5.8773,2.9387;}
	.st38{display:inline;fill:#FFFFFF;}
	.st39{fill:none;stroke:#E52320;stroke-width:5;stroke-miterlimit:10;stroke-dasharray:6,3;}
	.st40{fill:#DADADA;}
	.st41{fill:none;stroke:#FFFFFF;stroke-width:0.9999;stroke-miterlimit:10;}
	.st42{font-size:10.0831px;}
	.st43{fill:none;stroke:#0D9A39;stroke-width:5;stroke-miterlimit:10;stroke-dasharray:6.1798,3.0899;}
	.st44{fill:none;stroke:#0D9A39;stroke-width:5;stroke-miterlimit:10;stroke-dasharray:6.3071,3.1536;}
	.st45{fill:none;stroke:#0D9A39;stroke-width:5;stroke-miterlimit:10;stroke-dasharray:6.3066,3.1533;}
	.st46{font-size:8px;}
	.st47{display:inline;fill:#FAB523;}
	.st48{display:inline;fill:#41579A;}
</style>
<g id="Calque_2">
	<g>
		<rect x="375.13" y="124.23" class="st0" width="163.33" height="145.5"/>
		<g>
			<rect x="374.96" y="123.73" class="st1" width="167.33" height="147"/>
			<line class="st1" x1="374.96" y1="246.22" x2="542.3" y2="246.22"/>
			<line class="st1" x1="374.96" y1="221.75" x2="542.3" y2="221.75"/>
			<line class="st1" x1="374.96" y1="197.23" x2="542.3" y2="197.23"/>
			<line class="st1" x1="374.96" y1="172.72" x2="542.3" y2="172.72"/>
			<line class="st1" x1="374.96" y1="148.25" x2="542.3" y2="148.25"/>
			<line class="st1" x1="514.4" y1="123.73" x2="514.4" y2="270.73"/>
			<line class="st1" x1="486.53" y1="123.73" x2="486.53" y2="270.73"/>
			<line class="st1" x1="458.63" y1="123.73" x2="458.63" y2="270.73"/>
			<line class="st1" x1="430.73" y1="123.73" x2="430.73" y2="270.73"/>
			<line class="st1" x1="402.87" y1="123.73" x2="402.87" y2="270.73"/>
		</g>
		<rect x="431.13" y="173.57" class="st2" width="26.83" height="23.17"/>
		<rect x="377.05" y="133.07" class="st3" width="24.67" height="15"/>
		<text transform="matrix(1 0 0 1 380.9585 140.5693)" class="st4 st5">101</text>
		<rect x="377.05" y="157.16" class="st3" width="24.67" height="15"/>
		<text transform="matrix(1 0 0 1 383.7661 164.6635)" class="st4 st5">98</text>
		<rect x="377.05" y="181.26" class="st3" width="24.67" height="15"/>
		<text transform="matrix(1 0 0 1 383.7661 188.7582)" class="st4 st5">98</text>
		<rect x="405.4" y="181.26" class="st3" width="24.67" height="15"/>
		<text transform="matrix(1 0 0 1 412.1123 188.7582)" class="st4 st5">99</text>
		<rect x="405.4" y="157.16" class="st3" width="24.67" height="15"/>
		<text transform="matrix(1 0 0 1 409.3047 164.6635)" class="st4 st5">102</text>
		<rect x="405.4" y="133.07" class="st3" width="24.67" height="15"/>
		<text transform="matrix(1 0 0 1 409.3047 140.5693)" class="st4 st5">105</text>
		<rect x="432.33" y="133.07" class="st3" width="24.67" height="15"/>
		<text transform="matrix(1 0 0 1 439.0415 140.5693)" class="st4 st5">95</text>
		<rect x="460.68" y="133.07" class="st3" width="24.67" height="15"/>
		<text transform="matrix(1 0 0 1 464.5806 140.5693)" class="st4 st5">101</text>
		<rect x="489.03" y="133.07" class="st3" width="24.67" height="15"/>
		<text transform="matrix(1 0 0 1 492.9268 140.5693)" class="st4 st5">106</text>
		<rect x="514.54" y="133.07" class="st3" width="24.67" height="15"/>
		<text transform="matrix(1 0 0 1 521.2466 140.5693)" class="st4 st5">93</text>
		<rect x="460.68" y="157.16" class="st3" width="24.67" height="15"/>
		<text transform="matrix(1 0 0 1 464.5806 164.6635)" class="st4 st5">105</text>
		<rect x="489.03" y="157.16" class="st3" width="24.67" height="15"/>
		<text transform="matrix(1 0 0 1 492.9268 164.6635)" class="st4 st5">102</text>
		<rect x="514.54" y="157.16" class="st3" width="24.67" height="15"/>
		<text transform="matrix(1 0 0 1 518.439 164.6635)" class="st4 st5">105</text>
		<rect x="460.68" y="181.26" class="st3" width="24.67" height="15"/>
		<text transform="matrix(1 0 0 1 464.5806 188.7582)" class="st4 st5">110</text>
		<rect x="489.03" y="181.26" class="st3" width="24.67" height="15"/>
		<text transform="matrix(1 0 0 1 495.7344 188.7582)" class="st4 st5">99</text>
		<rect x="514.54" y="181.26" class="st3" width="24.67" height="15"/>
		<text transform="matrix(1 0 0 1 518.439 188.7582)" class="st4 st5">100</text>
		<rect x="432.33" y="157.16" class="st3" width="24.67" height="15"/>
		<text transform="matrix(1 0 0 1 439.0415 164.6635)" class="st4 st5">96</text>
		<rect x="377.05" y="205.36" class="st3" width="24.67" height="15"/>
		<text transform="matrix(1 0 0 1 380.9585 212.8525)" class="st4 st5">105</text>
		<rect x="405.4" y="205.36" class="st3" width="24.67" height="15"/>
		<text transform="matrix(1 0 0 1 409.3047 212.8525)" class="st4 st5">104</text>
		<rect x="460.68" y="205.36" class="st3" width="24.67" height="15"/>
		<text transform="matrix(1 0 0 1 464.5806 212.8525)" class="st4 st5">105</text>
		<rect x="489.03" y="205.36" class="st3" width="24.67" height="15"/>
		<text transform="matrix(1 0 0 1 492.9268 212.8525)" class="st4 st5">104</text>
		<rect x="514.54" y="205.36" class="st3" width="24.67" height="15"/>
		<text transform="matrix(1 0 0 1 518.439 212.8525)" class="st4 st5">108</text>
		<rect x="432.33" y="205.36" class="st3" width="24.67" height="15"/>
		<text transform="matrix(1 0 0 1 436.2339 212.8525)" class="st4 st5">108</text>
		<rect x="377.05" y="230.87" class="st3" width="24.67" height="15"/>
		<text transform="matrix(1 0 0 1 380.9585 238.3642)" class="st4 st5">101</text>
		<rect x="405.4" y="230.87" class="st3" width="24.67" height="15"/>
		<text transform="matrix(1 0 0 1 412.1123 238.3642)" class="st4 st5">96</text>
		<rect x="460.68" y="230.87" class="st3" width="24.67" height="15"/>
		<text transform="matrix(1 0 0 1 464.5806 238.3642)" class="st4 st5">101</text>
		<rect x="489.03" y="230.87" class="st3" width="24.67" height="15"/>
		<text transform="matrix(1 0 0 1 495.7344 238.3642)" class="st4 st5">96</text>
		<rect x="514.54" y="230.87" class="st3" width="24.67" height="15"/>
		<text transform="matrix(1 0 0 1 521.2466 238.3642)" class="st4 st5">95</text>
		<rect x="432.33" y="230.87" class="st3" width="24.67" height="15"/>
		<text transform="matrix(1 0 0 1 439.0415 238.3642)" class="st4 st5">92</text>
		<rect x="377.05" y="253.55" class="st3" width="24.67" height="15"/>
		<text transform="matrix(1 0 0 1 380.9585 261.0414)" class="st4 st5">100</text>
		<rect x="405.4" y="253.55" class="st3" width="24.67" height="15"/>
		<text transform="matrix(1 0 0 1 412.1123 261.0414)" class="st4 st5">99</text>
		<rect x="460.68" y="253.55" class="st3" width="24.67" height="15"/>
		<text transform="matrix(1 0 0 1 464.5806 261.0414)" class="st4 st5">100</text>
		<rect x="489.03" y="253.55" class="st3" width="24.67" height="15"/>
		<text transform="matrix(1 0 0 1 495.7344 261.0414)" class="st4 st5">99</text>
		<rect x="514.54" y="253.55" class="st3" width="24.67" height="15"/>
		<text transform="matrix(1 0 0 1 521.2466 261.0414)" class="st4 st5">92</text>
		<rect x="432.33" y="253.55" class="st3" width="24.67" height="15"/>
		<text transform="matrix(1 0 0 1 436.2339 261.0414)" class="st4 st5">102</text>
		<rect x="432.33" y="179.84" class="st3" width="24.67" height="15"/>
		<text transform="matrix(1 0 0 1 435.9702 187.3408)" class="st6 st7 st5">100</text>
		<g>
			<g>
				<g>
					<polyline class="st8" points="458.88,195.45 458.88,198.45 455.88,198.45 					"/>
					<line class="st9" x1="452.91" y1="198.45" x2="383.08" y2="198.45"/>
					<polyline class="st8" points="381.59,198.45 378.59,198.45 378.59,195.45 					"/>
					<line class="st10" x1="378.59" y1="192.39" x2="378.59" y2="129.71"/>
					<polyline class="st8" points="378.59,128.18 378.59,125.18 381.59,125.18 					"/>
					<line class="st9" x1="384.56" y1="125.18" x2="454.39" y2="125.18"/>
					<polyline class="st8" points="455.88,125.18 458.88,125.18 458.88,128.18 					"/>
					<line class="st10" x1="458.88" y1="131.24" x2="458.88" y2="193.92"/>
				</g>
			</g>
		</g>
		<g>
			<g>
				<g>
					<polyline class="st11" points="486.46,221.7 486.46,224.7 483.46,224.7 					"/>
					<line class="st12" x1="481.38" y1="224.7" x2="407.26" y2="224.7"/>
					<polyline class="st11" points="406.22,224.7 403.22,224.7 403.22,221.7 					"/>
					<line class="st13" x1="403.22" y1="219.6" x2="403.22" y2="153.37"/>
					<polyline class="st11" points="403.22,152.32 403.22,149.32 406.22,149.32 					"/>
					<line class="st12" x1="408.3" y1="149.32" x2="482.42" y2="149.32"/>
					<polyline class="st11" points="483.46,149.32 486.46,149.32 486.46,152.32 					"/>
					<line class="st13" x1="486.46" y1="154.42" x2="486.46" y2="220.65"/>
				</g>
			</g>
		</g>
		<g>
			<g>
				<polyline class="st14" points="539.21,270.07 539.21,273.07 536.21,273.07 				"/>
				<line class="st15" x1="533.18" y1="273.07" x2="380.15" y2="273.07"/>
				<polyline class="st14" points="378.63,273.07 375.63,273.07 375.63,270.07 				"/>
				<line class="st16" x1="375.63" y1="267.13" x2="375.63" y2="127.54"/>
				<polyline class="st14" points="375.63,126.07 375.63,123.07 378.63,123.07 				"/>
				<line class="st15" x1="381.66" y1="123.07" x2="534.7" y2="123.07"/>
				<polyline class="st14" points="536.21,123.07 539.21,123.07 539.21,126.07 				"/>
				<line class="st16" x1="539.21" y1="129.01" x2="539.21" y2="268.6"/>
			</g>
		</g>
	</g>
	<g>
		<text transform="matrix(1 0 0 1 121.6958 200.8154)" class="st17 st5">0</text>
		<text transform="matrix(1 0 0 1 121.6958 178.482)" class="st17 st5">1</text>
		<text transform="matrix(1 0 0 1 121.6958 156.1487)" class="st17 st5">2</text>
		<text transform="matrix(1 0 0 1 121.6958 133.8154)" class="st17 st5">3</text>
		<text transform="matrix(1 0 0 1 116.4028 223.1487)" class="st17 st5">- 1</text>
		<text transform="matrix(1 0 0 1 116.4028 245.482)" class="st17 st5">- 2</text>
		<text transform="matrix(1 0 0 1 116.4028 267.8154)" class="st17 st5">- 3</text>
		<rect x="134.49" y="198.23" class="st18" width="66.05" height="13.96"/>
		<rect x="201.49" y="159.51" class="st19" width="66.05" height="38.72"/>
		<rect x="268.49" y="198.23" class="st20" width="66.05" height="72.64"/>
		<line class="st21" x1="340.44" y1="131.3" x2="134.49" y2="131.3"/>
		<line class="st21" x1="340.44" y1="153.61" x2="134.49" y2="153.61"/>
		<line class="st21" x1="340.44" y1="175.92" x2="134.49" y2="175.92"/>
		<line class="st21" x1="340.44" y1="220.54" x2="134.49" y2="220.54"/>
		<line class="st21" x1="340.44" y1="242.85" x2="134.49" y2="242.85"/>
		<line class="st21" x1="340.44" y1="265.16" x2="134.49" y2="265.16"/>
		<line class="st22" x1="340.44" y1="198.23" x2="134.49" y2="198.23"/>
	</g>
	<rect x="219" y="95.91" class="st3" width="166" height="11.78"/>
	<text transform="matrix(1 0 0 1 238.2959 106.4125)" class="st23 st24">Synthèse des écarts</text>
	<text transform="matrix(1 0 0 1 282.1883 228.8447)"><tspan x="0" y="0" class="st6 st4 st5">Contexte </tspan><tspan x="6.26" y="12" class="st6 st4 st5">spatial</tspan></text>
	<text transform="matrix(1 0 0 1 213.7779 172.1649)"><tspan x="0" y="0" class="st6 st4 st5">Contexte </tspan><tspan x="0.94" y="12" class="st6 st4 st5">territorial</tspan></text>
	<text transform="matrix(1 0 0 1 145.3678 228.5421)"><tspan x="0" y="0" class="st4 st5">Contexte </tspan><tspan x="4.66" y="12" class="st4 st5">général</tspan></text>
</g>
<g id="Calque_1" class="st25">
	<rect x="219" y="95.91" class="st26" width="166" height="11.78"/>
	<text transform="matrix(1 0 0 1 242.4863 106.4125)" class="st27 st23 st24">Contexte territorial</text>
	<rect x="410.92" y="95.91" class="st26" width="163" height="15.47"/>
	<text transform="matrix(1 0 0 1 441.2349 106.4125)" class="st27 st23 st24">Contexte spatial</text>
	<g class="st28">
		<g>
			<polygon class="st29" points="456.6,264.3 466,260.88 488.4,322.44 510.8,260.88 520.2,264.3 488.4,351.67 			"/>
		</g>
	</g>
	<g class="st28">
		<g>
			<polygon class="st29" points="266.6,264.3 276,260.88 298.4,322.44 320.8,260.88 330.2,264.3 298.4,351.67 			"/>
		</g>
	</g>
	<g class="st27">
		<rect x="217.59" y="119.58" class="st0" width="87.5" height="74.1"/>
		<rect x="301.05" y="119.58" class="st30" width="83.22" height="74.1"/>
		<rect x="300.8" y="193.58" class="st29" width="83.95" height="73.6"/>
		<rect x="216.17" y="193.58" class="st31" width="84.72" height="74.1"/>
		<g>
			<rect x="217.42" y="119.08" class="st32" width="167.25" height="147.86"/>
			<line class="st32" x1="217.42" y1="242.29" x2="384.67" y2="242.29"/>
			<line class="st32" x1="217.42" y1="217.67" x2="384.67" y2="217.67"/>
			<line class="st32" x1="217.42" y1="193.01" x2="384.67" y2="193.01"/>
			<line class="st32" x1="217.42" y1="168.36" x2="384.67" y2="168.36"/>
			<line class="st32" x1="217.42" y1="143.74" x2="384.67" y2="143.74"/>
			<line class="st32" x1="356.78" y1="119.08" x2="356.78" y2="266.94"/>
			<line class="st32" x1="328.93" y1="119.08" x2="328.93" y2="266.94"/>
			<line class="st32" x1="301.05" y1="119.08" x2="301.05" y2="266.94"/>
			<line class="st32" x1="273.16" y1="119.08" x2="273.16" y2="266.94"/>
			<line class="st32" x1="245.31" y1="119.08" x2="245.31" y2="266.94"/>
		</g>
		<rect x="217.59" y="119.42" class="st3" width="166.92" height="147.36"/>
		<rect x="273.56" y="169.21" class="st2" width="26.82" height="23.3"/>
		<rect x="219.5" y="128.47" class="st3" width="24.65" height="15.09"/>
		<text transform="matrix(0.9937 0 0 1 223.4126 136.0161)" class="st4 st33">101</text>
		<rect x="219.5" y="152.71" class="st3" width="24.65" height="15.09"/>
		<text transform="matrix(0.9937 0 0 1 226.2188 160.2544)" class="st4 st33">98</text>
		<rect x="219.5" y="176.95" class="st3" width="24.65" height="15.09"/>
		<text transform="matrix(0.9937 0 0 1 226.2188 184.4927)" class="st4 st33">98</text>
		<rect x="247.84" y="176.95" class="st3" width="24.65" height="15.09"/>
		<text transform="matrix(0.9937 0 0 1 254.5542 184.4927)" class="st4 st33">99</text>
		<rect x="247.84" y="152.71" class="st3" width="24.65" height="15.09"/>
		<text transform="matrix(0.9937 0 0 1 251.748 160.2544)" class="st4 st33">102</text>
		<rect x="247.84" y="128.47" class="st3" width="24.65" height="15.09"/>
		<text transform="matrix(0.9937 0 0 1 254.5542 136.0161)" class="st4 st33">95</text>
		<rect x="274.76" y="128.47" class="st3" width="24.65" height="15.09"/>
		<text transform="matrix(0.9937 0 0 1 281.4731 136.0161)" class="st4 st33">95</text>
		<rect x="303.09" y="128.47" class="st3" width="24.65" height="15.09"/>
		<text transform="matrix(0.9937 0 0 1 307.0024 136.0161)" class="st4 st33">101</text>
		<rect x="331.43" y="128.47" class="st3" width="24.65" height="15.09"/>
		<text transform="matrix(0.9937 0 0 1 335.3384 136.0161)" class="st4 st33">106</text>
		<rect x="356.93" y="128.47" class="st3" width="24.66" height="15.09"/>
		<text transform="matrix(0.9937 0 0 1 363.647 136.0161)" class="st4 st33">93</text>
		<rect x="303.09" y="152.71" class="st3" width="24.65" height="15.09"/>
		<text transform="matrix(0.9937 0 0 1 309.8091 160.2544)" class="st4 st33">98</text>
		<rect x="331.43" y="152.71" class="st3" width="24.65" height="15.09"/>
		<text transform="matrix(0.9937 0 0 1 335.3384 160.2544)" class="st4 st33">102</text>
		<rect x="356.93" y="152.71" class="st3" width="24.66" height="15.09"/>
		<text transform="matrix(0.9937 0 0 1 360.8413 160.2544)" class="st4 st33">105</text>
		<rect x="303.09" y="176.95" class="st3" width="24.65" height="15.09"/>
		<text transform="matrix(0.9937 0 0 1 309.8091 184.4927)" class="st4 st33">98</text>
		<rect x="331.43" y="176.95" class="st3" width="24.65" height="15.09"/>
		<text transform="matrix(0.9937 0 0 1 338.145 184.4927)" class="st4 st33">99</text>
		<rect x="356.93" y="176.95" class="st3" width="24.66" height="15.09"/>
		<text transform="matrix(0.9937 0 0 1 360.8413 184.4927)" class="st4 st33">100</text>
		<rect x="274.76" y="152.71" class="st3" width="24.65" height="15.09"/>
		<text transform="matrix(0.9937 0 0 1 281.4731 160.2544)" class="st4 st33">96</text>
		<rect x="219.5" y="201.19" class="st3" width="24.65" height="15.09"/>
		<text transform="matrix(0.9937 0 0 1 223.4126 208.731)" class="st4 st33">105</text>
		<rect x="247.84" y="201.19" class="st3" width="24.65" height="15.09"/>
		<text transform="matrix(0.9937 0 0 1 251.748 208.731)" class="st4 st33">104</text>
		<rect x="303.09" y="201.19" class="st3" width="24.65" height="15.09"/>
		<text transform="matrix(0.9937 0 0 1 307.0024 208.731)" class="st4 st33">105</text>
		<rect x="331.43" y="201.19" class="st3" width="24.65" height="15.09"/>
		<text transform="matrix(0.9937 0 0 1 335.3384 208.731)" class="st4 st33">104</text>
		<rect x="356.93" y="201.19" class="st3" width="24.66" height="15.09"/>
		<text transform="matrix(0.9937 0 0 1 360.8413 208.731)" class="st4 st33">108</text>
		<rect x="274.76" y="201.19" class="st3" width="24.65" height="15.09"/>
		<text transform="matrix(0.9937 0 0 1 278.6665 208.731)" class="st4 st33">108</text>
		<rect x="219.5" y="226.85" class="st3" width="24.65" height="15.09"/>
		<text transform="matrix(0.9937 0 0 1 223.4126 234.395)" class="st4 st33">101</text>
		<rect x="247.84" y="226.85" class="st3" width="24.65" height="15.09"/>
		<text transform="matrix(0.9937 0 0 1 254.5542 234.395)" class="st4 st33">96</text>
		<rect x="303.09" y="226.85" class="st3" width="24.65" height="15.09"/>
		<text transform="matrix(0.9937 0 0 1 307.0024 234.395)" class="st4 st33">101</text>
		<rect x="331.43" y="226.85" class="st3" width="24.65" height="15.09"/>
		<text transform="matrix(0.9937 0 0 1 338.145 234.395)" class="st4 st33">96</text>
		<rect x="356.93" y="226.85" class="st3" width="24.66" height="15.09"/>
		<text transform="matrix(0.9937 0 0 1 363.647 234.395)" class="st4 st33">95</text>
		<rect x="274.76" y="226.85" class="st3" width="24.65" height="15.09"/>
		<text transform="matrix(0.9937 0 0 1 281.4731 234.395)" class="st4 st33">92</text>
		<rect x="219.5" y="249.66" class="st3" width="24.65" height="15.09"/>
		<text transform="matrix(0.9937 0 0 1 223.4126 257.2075)" class="st4 st33">100</text>
		<rect x="247.84" y="249.66" class="st3" width="24.65" height="15.09"/>
		<text transform="matrix(0.9937 0 0 1 254.5542 257.2075)" class="st4 st33">99</text>
		<rect x="303.09" y="249.66" class="st3" width="24.65" height="15.09"/>
		<text transform="matrix(0.9937 0 0 1 307.0024 257.2075)" class="st4 st33">100</text>
		<rect x="331.43" y="249.66" class="st3" width="24.65" height="15.09"/>
		<text transform="matrix(0.9937 0 0 1 338.145 257.2075)" class="st4 st33">99</text>
		<rect x="356.93" y="249.66" class="st3" width="24.66" height="15.09"/>
		<text transform="matrix(0.9937 0 0 1 363.647 257.2075)" class="st4 st33">92</text>
		<rect x="274.76" y="249.66" class="st3" width="24.65" height="15.09"/>
		<text transform="matrix(0.9937 0 0 1 278.6665 257.2075)" class="st4 st33">102</text>
		<rect x="274.76" y="175.52" class="st3" width="24.65" height="15.09"/>
		<text transform="matrix(0.9937 0 0 1 278.4033 183.0669)" class="st6 st7 st33">100</text>
		<g>
			<g>
				<polyline class="st8" points="301.33,190.79 301.33,193.79 298.33,193.79 				"/>
				<line class="st34" x1="295.24" y1="193.79" x2="222.63" y2="193.79"/>
				<polyline class="st8" points="221.09,193.79 218.09,193.79 218.09,190.79 				"/>
				<line class="st35" x1="218.09" y1="187.64" x2="218.09" y2="122.99"/>
				<polyline class="st8" points="218.09,121.41 218.09,118.41 221.09,118.41 				"/>
				<line class="st34" x1="224.18" y1="118.41" x2="296.79" y2="118.41"/>
				<polyline class="st8" points="298.33,118.41 301.33,118.41 301.33,121.41 				"/>
				<line class="st35" x1="301.33" y1="124.57" x2="301.33" y2="189.21"/>
			</g>
		</g>
	</g>
	<g class="st27">
		<rect x="26" y="356.48" class="st0" width="163.33" height="145.49"/>
		<g>
			<g>
				<polyline class="st14" points="193.5,502.31 193.5,505.31 190.5,505.31 				"/>
				<line class="st36" x1="187.57" y1="505.31" x2="30.96" y2="505.31"/>
				<polyline class="st14" points="29.5,505.31 26.5,505.31 26.5,502.31 				"/>
				<line class="st37" x1="26.5" y1="499.37" x2="26.5" y2="359.78"/>
				<polyline class="st14" points="26.5,358.31 26.5,355.31 29.5,355.31 				"/>
				<line class="st36" x1="32.43" y1="355.31" x2="189.04" y2="355.31"/>
				<polyline class="st14" points="190.5,355.31 193.5,355.31 193.5,358.31 				"/>
				<line class="st37" x1="193.5" y1="361.25" x2="193.5" y2="500.84"/>
			</g>
		</g>
		<rect x="26" y="356.31" class="st3" width="167" height="146.49"/>
		<rect x="82" y="405.81" class="st2" width="26.83" height="23.16"/>
	</g>
	<rect x="65.44" y="451.04" class="st26" width="101.17" height="15"/>
	<text transform="matrix(1 0 0 1 78.1738 458.5479)" class="st27 st4 st5">moyenne = 100,6</text>
	<rect x="78.03" y="413.53" class="st26" width="35.67" height="15"/>
	<text transform="matrix(1 0 0 1 82.7676 421.0327)" class="st38 st7 st5">-0,6%</text>
	<g class="st27">
		<rect x="217.49" y="358.38" class="st0" width="87.5" height="74.1"/>
		<rect x="300.96" y="358.38" class="st30" width="83.22" height="74.1"/>
		<rect x="300.71" y="432.37" class="st29" width="83.95" height="73.6"/>
		<rect x="216.08" y="432.37" class="st31" width="84.72" height="74.1"/>
		<rect x="217.99" y="357.21" class="st39" width="83.25" height="75.37"/>
		<rect x="217.49" y="358.21" class="st3" width="166.92" height="147.35"/>
		<rect x="273.47" y="408" class="st2" width="26.82" height="23.3"/>
	</g>
	<rect x="208.27" y="442.46" class="st26" width="101.17" height="15"/>
	<text transform="matrix(1 0 0 1 223.4785 449.9648)" class="st27 st4 st5">moyenne = 98.2</text>
	<rect x="270.45" y="416.03" class="st26" width="35.67" height="15"/>
	<text transform="matrix(1 0 0 1 274.7632 423.5327)" class="st38 st7 st5">+1,8%</text>
	<g class="st27">
		<g>
			<rect x="411.59" y="119" class="st40" width="164.91" height="148.02"/>
			<g>
				<rect x="437.43" y="144.2" class="st0" width="82.87" height="74.11"/>
				<g>
					<rect x="410.25" y="119" class="st41" width="165.91" height="148.23"/>
					<line class="st41" x1="410.25" y1="242.51" x2="576.16" y2="242.51"/>
					<line class="st41" x1="410.25" y1="217.83" x2="576.16" y2="217.83"/>
					<line class="st41" x1="410.25" y1="193.11" x2="576.16" y2="193.11"/>
					<line class="st41" x1="410.25" y1="168.39" x2="576.16" y2="168.39"/>
					<line class="st41" x1="410.25" y1="143.71" x2="576.16" y2="143.71"/>
					<line class="st41" x1="548.49" y1="119" x2="548.49" y2="267.22"/>
					<line class="st41" x1="520.87" y1="119" x2="520.87" y2="267.22"/>
					<line class="st41" x1="493.2" y1="119" x2="493.2" y2="267.22"/>
					<line class="st41" x1="465.54" y1="119" x2="465.54" y2="267.22"/>
					<line class="st41" x1="437.91" y1="119" x2="437.91" y2="267.22"/>
				</g>
				<rect x="410.41" y="119.33" class="st3" width="165.58" height="147.72"/>
				<rect x="465.94" y="169.25" class="st2" width="26.6" height="23.36"/>
				<rect x="412.31" y="128.41" class="st3" width="24.46" height="15.13"/>
				<text transform="matrix(0.9833 0 0 1 416.1914 135.9712)" class="st4 st42">101</text>
				<rect x="412.31" y="152.71" class="st3" width="24.46" height="15.13"/>
				<text transform="matrix(0.9833 0 0 1 418.9756 160.2695)" class="st4 st42">98</text>
				<rect x="412.31" y="177" class="st3" width="24.46" height="15.13"/>
				<text transform="matrix(0.9833 0 0 1 418.9756 184.5679)" class="st4 st42">98</text>
				<rect x="440.42" y="177" class="st3" width="24.46" height="15.13"/>
				<text transform="matrix(0.9833 0 0 1 447.084 184.5679)" class="st4 st42">99</text>
				<rect x="440.42" y="152.71" class="st3" width="24.46" height="15.13"/>
				<text transform="matrix(0.9833 0 0 1 444.2998 160.2695)" class="st4 st42">102</text>
				<rect x="440.42" y="128.41" class="st3" width="24.46" height="15.13"/>
				<text transform="matrix(0.9833 0 0 1 444.2998 135.9712)" class="st4 st42">105</text>
				<rect x="467.13" y="128.41" class="st3" width="24.46" height="15.13"/>
				<text transform="matrix(0.9833 0 0 1 473.7871 135.9712)" class="st4 st42">95</text>
				<rect x="495.23" y="128.41" class="st3" width="24.46" height="15.13"/>
				<text transform="matrix(0.9833 0 0 1 499.1113 135.9712)" class="st4 st42">101</text>
				<rect x="523.34" y="128.41" class="st3" width="24.46" height="15.13"/>
				<text transform="matrix(0.9833 0 0 1 527.2188 135.9712)" class="st4 st42">106</text>
				<rect x="548.64" y="128.41" class="st3" width="24.46" height="15.13"/>
				<text transform="matrix(0.9833 0 0 1 555.3008 135.9712)" class="st4 st42">93</text>
				<rect x="495.23" y="152.71" class="st3" width="24.46" height="15.13"/>
				<text transform="matrix(0.9833 0 0 1 499.1113 160.2695)" class="st4 st42">105</text>
				<rect x="523.34" y="152.71" class="st3" width="24.46" height="15.13"/>
				<text transform="matrix(0.9833 0 0 1 527.2188 160.2695)" class="st4 st42">102</text>
				<rect x="548.64" y="152.71" class="st3" width="24.46" height="15.13"/>
				<text transform="matrix(0.9833 0 0 1 552.5166 160.2695)" class="st4 st42">105</text>
				<rect x="495.23" y="177" class="st3" width="24.46" height="15.13"/>
				<text transform="matrix(0.9833 0 0 1 499.1113 184.5679)" class="st4 st42">110</text>
				<rect x="523.34" y="177" class="st3" width="24.46" height="15.13"/>
				<text transform="matrix(0.9833 0 0 1 530.002 184.5679)" class="st4 st42">99</text>
				<rect x="548.64" y="177" class="st3" width="24.46" height="15.13"/>
				<text transform="matrix(0.9833 0 0 1 552.5166 184.5679)" class="st4 st42">100</text>
				<rect x="467.13" y="152.71" class="st3" width="24.46" height="15.13"/>
				<text transform="matrix(0.9833 0 0 1 473.7871 160.2695)" class="st4 st42">96</text>
				<rect x="412.31" y="201.3" class="st3" width="24.46" height="15.13"/>
				<text transform="matrix(0.9833 0 0 1 416.1914 208.8667)" class="st4 st42">105</text>
				<rect x="440.42" y="201.3" class="st3" width="24.46" height="15.13"/>
				<text transform="matrix(0.9833 0 0 1 444.2998 208.8667)" class="st4 st42">104</text>
				<rect x="495.23" y="201.3" class="st3" width="24.46" height="15.13"/>
				<text transform="matrix(0.9833 0 0 1 499.1113 208.8667)" class="st4 st42">105</text>
				<rect x="523.34" y="201.3" class="st3" width="24.46" height="15.13"/>
				<text transform="matrix(0.9833 0 0 1 527.2188 208.8667)" class="st4 st42">104</text>
				<rect x="548.64" y="201.3" class="st3" width="24.46" height="15.13"/>
				<text transform="matrix(0.9833 0 0 1 552.5166 208.8667)" class="st4 st42">108</text>
				<rect x="467.13" y="201.3" class="st3" width="24.46" height="15.13"/>
				<text transform="matrix(0.9833 0 0 1 471.0029 208.8667)" class="st4 st42">108</text>
				<rect x="412.31" y="227.03" class="st3" width="24.46" height="15.13"/>
				<text transform="matrix(0.9833 0 0 1 416.1914 234.5938)" class="st4 st42">101</text>
				<rect x="440.42" y="227.03" class="st3" width="24.46" height="15.13"/>
				<text transform="matrix(0.9833 0 0 1 447.084 234.5938)" class="st4 st42">96</text>
				<rect x="495.23" y="227.03" class="st3" width="24.46" height="15.13"/>
				<text transform="matrix(0.9833 0 0 1 499.1113 234.5938)" class="st4 st42">101</text>
				<rect x="523.34" y="227.03" class="st3" width="24.46" height="15.13"/>
				<text transform="matrix(0.9833 0 0 1 530.002 234.5938)" class="st4 st42">96</text>
				<rect x="548.64" y="227.03" class="st3" width="24.46" height="15.13"/>
				<text transform="matrix(0.9833 0 0 1 555.3008 234.5938)" class="st4 st42">95</text>
				<rect x="467.13" y="227.03" class="st3" width="24.46" height="15.13"/>
				<text transform="matrix(0.9833 0 0 1 473.7871 234.5938)" class="st4 st42">92</text>
				<rect x="412.31" y="249.9" class="st3" width="24.46" height="15.13"/>
				<text transform="matrix(0.9833 0 0 1 416.1914 257.4629)" class="st4 st42">100</text>
				<rect x="440.42" y="249.9" class="st3" width="24.46" height="15.13"/>
				<text transform="matrix(0.9833 0 0 1 447.084 257.4629)" class="st4 st42">99</text>
				<rect x="495.23" y="249.9" class="st3" width="24.46" height="15.13"/>
				<text transform="matrix(0.9833 0 0 1 499.1113 257.4629)" class="st4 st42">100</text>
				<rect x="523.34" y="249.9" class="st3" width="24.46" height="15.13"/>
				<text transform="matrix(0.9833 0 0 1 530.002 257.4629)" class="st4 st42">99</text>
				<rect x="548.64" y="249.9" class="st3" width="24.46" height="15.13"/>
				<text transform="matrix(0.9833 0 0 1 555.3008 257.4629)" class="st4 st42">92</text>
				<rect x="467.13" y="249.9" class="st3" width="24.46" height="15.13"/>
				<text transform="matrix(0.9833 0 0 1 471.0029 257.4629)" class="st4 st42">102</text>
				<rect x="467.13" y="175.58" class="st3" width="24.46" height="15.13"/>
				<text transform="matrix(0.9833 0 0 1 470.7422 183.1387)" class="st6 st7 st42">100</text>
			</g>
		</g>
		<g>
			<g>
				<polyline class="st11" points="520.83,216.29 520.83,219.29 517.83,219.29 				"/>
				<line class="st43" x1="514.74" y1="219.29" x2="442.13" y2="219.29"/>
				<polyline class="st11" points="440.59,219.29 437.59,219.29 437.59,216.29 				"/>
				<line class="st44" x1="437.59" y1="213.14" x2="437.59" y2="148.49"/>
				<polyline class="st11" points="437.59,146.91 437.59,143.91 440.59,143.91 				"/>
				<line class="st43" x1="443.68" y1="143.91" x2="516.29" y2="143.91"/>
				<polyline class="st11" points="517.83,143.91 520.83,143.91 520.83,146.91 				"/>
				<line class="st44" x1="520.83" y1="150.07" x2="520.83" y2="214.71"/>
			</g>
		</g>
	</g>
	<g class="st27">
		<g>
			<rect x="406.38" y="357.98" class="st40" width="164.91" height="148.01"/>
			<g>
				<rect x="432.22" y="383.19" class="st0" width="82.87" height="74.11"/>
				<rect x="460.73" y="408.23" class="st2" width="26.6" height="23.36"/>
			</g>
		</g>
		<g>
			<g>
				<polyline class="st11" points="515.62,455.28 515.62,458.28 512.62,458.28 				"/>
				<line class="st43" x1="509.53" y1="458.28" x2="436.92" y2="458.28"/>
				<polyline class="st11" points="435.38,458.28 432.38,458.28 432.38,455.28 				"/>
				<line class="st45" x1="432.38" y1="452.12" x2="432.38" y2="387.48"/>
				<polyline class="st11" points="432.38,385.9 432.38,382.9 435.38,382.9 				"/>
				<line class="st43" x1="438.47" y1="382.9" x2="511.08" y2="382.9"/>
				<polyline class="st11" points="512.62,382.9 515.62,382.9 515.62,385.9 				"/>
				<line class="st45" x1="515.62" y1="389.06" x2="515.62" y2="453.7"/>
			</g>
		</g>
	</g>
	<rect x="457.2" y="416.61" class="st26" width="35.67" height="15"/>
	<text transform="matrix(1 0 0 1 461.77 424.1152)" class="st38 st7 st5">-3.2%</text>
	<rect x="428.27" y="467.96" class="st26" width="101.17" height="15"/>
	<text transform="matrix(1 0 0 1 440.6709 475.4648)" class="st27 st4 st5">moyenne = 103.2</text>
	<rect x="385.33" y="516.58" class="st26" width="181.49" height="9.32"/>
	<text transform="matrix(1 0 0 1 463.9004 522.5781)" class="st27 st4 st46">Ronan Ysebaert, RIATE, 2020</text>
	<g class="st28">
		<g>
			<polygon class="st29" points="77.6,264.3 87,260.88 109.4,322.44 131.8,260.88 141.2,264.3 109.4,351.67 			"/>
		</g>
	</g>
	<rect x="410.41" y="288.5" class="st26" width="165.58" height="39"/>
	<text transform="matrix(1 0 0 1 457.0942 296.0049)" class="st27"><tspan x="0" y="0" class="st4 st5">Prise en compte</tspan><tspan x="-24.57" y="12" class="st4 st5">du </tspan><tspan x="-10.94" y="12" class="st23 st5">voisinage géographique</tspan><tspan x="-36.87" y="24" class="st4 st5">(ex. : Contiguité, distance-temps)</tspan></text>
	<rect x="216.17" y="288.5" class="st26" width="168.01" height="39"/>
	<text transform="matrix(1 0 0 1 253.4961 296.0049)" class="st27"><tspan x="0" y="0" class="st4 st5">Prise en compte d’un </tspan><tspan x="-21.73" y="12" class="st23 st5">niveau territorial intermédiaire</tspan><tspan x="-2.93" y="24" class="st4 st5">(ex. : États européens)</tspan></text>
	<rect x="22.9" y="288.5" class="st26" width="171.52" height="39"/>
	<text transform="matrix(1 0 0 1 65.8428 296.0049)" class="st27"><tspan x="0" y="0" class="st4 st5">Prise en compte de</tspan><tspan x="-26.09" y="12" class="st23 st5">l’ensemble de l’espace d’étude</tspan><tspan x="13.64" y="24" class="st4 st5">(ex. : Europe)</tspan></text>
	<rect x="26.42" y="95.91" class="st26" width="168" height="11.89"/>
	<text transform="matrix(1 0 0 1 56.7109 106.4125)" class="st27 st23 st24">Contexte général</text>
	<rect x="25.5" y="118.83" class="st47" width="163.33" height="145.5"/>
	<g class="st27">
		<rect x="25.33" y="118.33" class="st1" width="167.33" height="147"/>
		<line class="st1" x1="25.33" y1="240.82" x2="192.67" y2="240.82"/>
		<line class="st1" x1="25.33" y1="216.34" x2="192.67" y2="216.34"/>
		<line class="st1" x1="25.33" y1="191.83" x2="192.67" y2="191.83"/>
		<line class="st1" x1="25.33" y1="167.32" x2="192.67" y2="167.32"/>
		<line class="st1" x1="25.33" y1="142.84" x2="192.67" y2="142.84"/>
		<line class="st1" x1="164.76" y1="118.33" x2="164.76" y2="265.33"/>
		<line class="st1" x1="136.9" y1="118.33" x2="136.9" y2="265.33"/>
		<line class="st1" x1="109" y1="118.33" x2="109" y2="265.33"/>
		<line class="st1" x1="81.1" y1="118.33" x2="81.1" y2="265.33"/>
		<line class="st1" x1="53.24" y1="118.33" x2="53.24" y2="265.33"/>
	</g>
	<g class="st27">
		<g>
			<polyline class="st14" points="193,264.66 193,267.66 190,267.66 			"/>
			<line class="st36" x1="187.07" y1="267.66" x2="30.46" y2="267.66"/>
			<polyline class="st14" points="29,267.66 26,267.66 26,264.66 			"/>
			<line class="st16" x1="26" y1="261.72" x2="26" y2="122.13"/>
			<polyline class="st14" points="26,120.66 26,117.66 29,117.66 			"/>
			<line class="st36" x1="31.93" y1="117.66" x2="188.54" y2="117.66"/>
			<polyline class="st14" points="190,117.66 193,117.66 193,120.66 			"/>
			<line class="st16" x1="193" y1="123.6" x2="193" y2="263.19"/>
		</g>
	</g>
	<rect x="81.5" y="168.16" class="st48" width="26.83" height="23.17"/>
	<rect x="27.42" y="127.66" class="st26" width="24.67" height="15"/>
	<text transform="matrix(1 0 0 1 31.3276 135.1616)" class="st27 st4 st5">101</text>
	<rect x="27.42" y="151.76" class="st26" width="24.67" height="15"/>
	<text transform="matrix(1 0 0 1 34.1353 159.2559)" class="st27 st4 st5">98</text>
	<rect x="27.42" y="175.85" class="st26" width="24.67" height="15"/>
	<text transform="matrix(1 0 0 1 34.1353 183.3506)" class="st27 st4 st5">98</text>
	<rect x="55.77" y="175.85" class="st26" width="24.67" height="15"/>
	<text transform="matrix(1 0 0 1 62.4814 183.3506)" class="st27 st4 st5">99</text>
	<rect x="55.77" y="151.76" class="st26" width="24.67" height="15"/>
	<text transform="matrix(1 0 0 1 59.6738 159.2559)" class="st27 st4 st5">102</text>
	<rect x="55.77" y="127.66" class="st26" width="24.67" height="15"/>
	<text transform="matrix(1 0 0 1 59.6738 135.1616)" class="st27 st4 st5">105</text>
	<rect x="82.7" y="127.66" class="st26" width="24.67" height="15"/>
	<text transform="matrix(1 0 0 1 89.4106 135.1616)" class="st27 st4 st5">95</text>
	<rect x="111.05" y="127.66" class="st26" width="24.67" height="15"/>
	<text transform="matrix(1 0 0 1 114.9497 135.1616)" class="st27 st4 st5">101</text>
	<rect x="139.4" y="127.66" class="st26" width="24.67" height="15"/>
	<text transform="matrix(1 0 0 1 143.2959 135.1616)" class="st27 st4 st5">106</text>
	<rect x="164.91" y="127.66" class="st26" width="24.67" height="15"/>
	<text transform="matrix(1 0 0 1 171.6157 135.1616)" class="st27 st4 st5">93</text>
	<rect x="111.05" y="151.76" class="st26" width="24.67" height="15"/>
	<text transform="matrix(1 0 0 1 114.9497 159.2559)" class="st27 st4 st5">105</text>
	<rect x="139.4" y="151.76" class="st26" width="24.67" height="15"/>
	<text transform="matrix(1 0 0 1 143.2959 159.2559)" class="st27 st4 st5">102</text>
	<rect x="164.91" y="151.76" class="st26" width="24.67" height="15"/>
	<text transform="matrix(1 0 0 1 168.8081 159.2559)" class="st27 st4 st5">105</text>
	<rect x="111.05" y="175.85" class="st26" width="24.67" height="15"/>
	<text transform="matrix(1 0 0 1 114.9497 183.3506)" class="st27 st4 st5">110</text>
	<rect x="139.4" y="175.85" class="st26" width="24.67" height="15"/>
	<text transform="matrix(1 0 0 1 146.1035 183.3506)" class="st27 st4 st5">99</text>
	<rect x="164.91" y="175.85" class="st26" width="24.67" height="15"/>
	<text transform="matrix(1 0 0 1 168.8081 183.3506)" class="st27 st4 st5">100</text>
	<rect x="82.7" y="151.76" class="st26" width="24.67" height="15"/>
	<text transform="matrix(1 0 0 1 89.4106 159.2559)" class="st27 st4 st5">96</text>
	<rect x="27.42" y="199.95" class="st26" width="24.67" height="15"/>
	<text transform="matrix(1 0 0 1 31.3276 207.4448)" class="st27 st4 st5">105</text>
	<rect x="55.77" y="199.95" class="st26" width="24.67" height="15"/>
	<text transform="matrix(1 0 0 1 59.6738 207.4448)" class="st27 st4 st5">104</text>
	<rect x="111.05" y="199.95" class="st26" width="24.67" height="15"/>
	<text transform="matrix(1 0 0 1 114.9497 207.4448)" class="st27 st4 st5">105</text>
	<rect x="139.4" y="199.95" class="st26" width="24.67" height="15"/>
	<text transform="matrix(1 0 0 1 143.2959 207.4448)" class="st27 st4 st5">104</text>
	<rect x="164.91" y="199.95" class="st26" width="24.67" height="15"/>
	<text transform="matrix(1 0 0 1 168.8081 207.4448)" class="st27 st4 st5">108</text>
	<rect x="82.7" y="199.95" class="st26" width="24.67" height="15"/>
	<text transform="matrix(1 0 0 1 86.603 207.4448)" class="st27 st4 st5">108</text>
	<rect x="27.42" y="225.47" class="st26" width="24.67" height="15"/>
	<text transform="matrix(1 0 0 1 31.3276 232.9565)" class="st27 st4 st5">101</text>
	<rect x="55.77" y="225.47" class="st26" width="24.67" height="15"/>
	<text transform="matrix(1 0 0 1 62.4814 232.9565)" class="st27 st4 st5">96</text>
	<rect x="111.05" y="225.47" class="st26" width="24.67" height="15"/>
	<text transform="matrix(1 0 0 1 114.9497 232.9565)" class="st27 st4 st5">101</text>
	<rect x="139.4" y="225.47" class="st26" width="24.67" height="15"/>
	<text transform="matrix(1 0 0 1 146.1035 232.9565)" class="st27 st4 st5">96</text>
	<rect x="164.91" y="225.47" class="st26" width="24.67" height="15"/>
	<text transform="matrix(1 0 0 1 171.6157 232.9565)" class="st27 st4 st5">95</text>
	<rect x="82.7" y="225.47" class="st26" width="24.67" height="15"/>
	<text transform="matrix(1 0 0 1 89.4106 232.9565)" class="st27 st4 st5">92</text>
	<rect x="27.42" y="248.15" class="st26" width="24.67" height="15"/>
	<text transform="matrix(1 0 0 1 31.3276 255.6338)" class="st27 st4 st5">100</text>
	<rect x="55.77" y="248.15" class="st26" width="24.67" height="15"/>
	<text transform="matrix(1 0 0 1 62.4814 255.6338)" class="st27 st4 st5">99</text>
	<rect x="111.05" y="248.15" class="st26" width="24.67" height="15"/>
	<text transform="matrix(1 0 0 1 114.9497 255.6338)" class="st27 st4 st5">100</text>
	<rect x="139.4" y="248.15" class="st26" width="24.67" height="15"/>
	<text transform="matrix(1 0 0 1 146.1035 255.6338)" class="st27 st4 st5">99</text>
	<rect x="164.91" y="248.15" class="st26" width="24.67" height="15"/>
	<text transform="matrix(1 0 0 1 171.6157 255.6338)" class="st27 st4 st5">92</text>
	<rect x="82.7" y="248.15" class="st26" width="24.67" height="15"/>
	<text transform="matrix(1 0 0 1 86.603 255.6338)" class="st27 st4 st5">102</text>
	<rect x="82.7" y="174.44" class="st26" width="24.67" height="15"/>
	<text transform="matrix(1 0 0 1 86.3394 181.9331)" class="st38 st7 st5">100</text>
</g>
</svg>
